<svg width="177" height="32" viewBox="0 0 177 32" fill="none" xmlns="http://www.w3.org/2000/svg">
<path fill-rule="evenodd" clip-rule="evenodd" d="M37.372 3.4358C41.4719 -0.674986 48.495 2.22861 48.495 8.03443V22.2774C48.495 27.3844 44.3549 31.5245 39.2478 31.5245L39.2324 31.5245H39.2323C34.1305 31.5245 29.9921 27.3888 29.97 22.2787V31.5245H29.9699V10.8576L37.372 3.4358Z" fill="url(#paint0_linear_1_162)"/>
<path fill-rule="evenodd" clip-rule="evenodd" d="M29.9699 31.5246H9.35767L9.35775 31.5245H6.74859V31.5232C8.38673 31.491 9.92501 30.8532 11.0537 29.824L29.9699 10.8574V31.5246ZM29.97 22.2786C29.9922 27.3888 34.1306 31.5244 39.2323 31.5244H39.2324V31.5245H29.97V22.2786Z" fill="url(#paint1_linear_1_162)"/>
<path fill-rule="evenodd" clip-rule="evenodd" d="M29.97 10.8576V10.8575L11.0537 29.8241C9.92504 30.8533 8.38676 31.491 6.74862 31.5233V31.5245H6.52518C0.727701 31.5245 -2.17965 24.5187 1.91433 20.4138L18.8473 3.4358C22.9471 -0.674986 29.9702 2.22861 29.9702 8.03443V10.8574L29.97 10.8576Z" fill="url(#paint2_linear_1_162)"/>
<path d="M64.9751 23V9H67.0951L72.1951 17.3L71.1751 17.28L76.3351 9H78.3351V23H76.1751V17.26C76.1751 16.06 76.2018 14.98 76.2551 14.02C76.3218 13.06 76.4285 12.1067 76.5751 11.16L76.8551 11.9L72.2751 18.98H70.9551L66.5151 11.98L66.7351 11.16C66.8818 12.0533 66.9818 12.9733 67.0351 13.92C67.1018 14.8533 67.1351 15.9667 67.1351 17.26V23H64.9751ZM85.4203 23.2C84.6736 23.2 84.0203 23.0267 83.4603 22.68C82.9136 22.3333 82.487 21.8467 82.1803 21.22C81.887 20.5933 81.7403 19.8467 81.7403 18.98V12.5H83.8003V18.42C83.8003 19.34 84.0136 20.0667 84.4403 20.6C84.8803 21.1333 85.487 21.4 86.2603 21.4C86.647 21.4 87.0003 21.34 87.3203 21.22C87.6403 21.0867 87.9136 20.9067 88.1403 20.68C88.3803 20.4533 88.567 20.18 88.7003 19.86C88.8336 19.54 88.9003 19.1933 88.9003 18.82V12.5H90.9603V23H88.9003V20.8L89.2603 20.56C89.1003 21.0533 88.827 21.5 88.4403 21.9C88.067 22.3 87.6203 22.62 87.1003 22.86C86.5803 23.0867 86.0203 23.2 85.4203 23.2ZM93.8897 23V8.2H95.9497V23H93.8897ZM100.111 23V9.82H102.171V23H100.111ZM97.9306 14.5V12.5H104.611V14.5H97.9306ZM106.826 23V12.5H108.886V23H106.826ZM107.826 10.18C107.386 10.18 107.046 10.0667 106.806 9.84C106.566 9.61333 106.446 9.29333 106.446 8.88C106.446 8.49333 106.566 8.18 106.806 7.94C107.06 7.7 107.4 7.58 107.826 7.58C108.266 7.58 108.606 7.69333 108.846 7.92C109.086 8.14667 109.206 8.46667 109.206 8.88C109.206 9.26667 109.08 9.58 108.826 9.82C108.586 10.06 108.253 10.18 107.826 10.18ZM115.553 23.2C114.673 23.2 113.879 23.0467 113.173 22.74C112.466 22.4333 111.879 21.98 111.413 21.38L112.813 20.18C113.213 20.6467 113.646 20.9867 114.113 21.2C114.593 21.4 115.133 21.5 115.733 21.5C115.973 21.5 116.193 21.4733 116.393 21.42C116.606 21.3533 116.786 21.26 116.933 21.14C117.093 21.02 117.213 20.88 117.293 20.72C117.373 20.5467 117.413 20.36 117.413 20.16C117.413 19.8133 117.286 19.5333 117.033 19.32C116.899 19.2267 116.686 19.1267 116.393 19.02C116.113 18.9 115.746 18.78 115.293 18.66C114.519 18.46 113.886 18.2333 113.393 17.98C112.899 17.7267 112.519 17.44 112.253 17.12C112.053 16.8667 111.906 16.5933 111.813 16.3C111.719 15.9933 111.673 15.66 111.673 15.3C111.673 14.7133 111.839 14.1933 112.173 13.74C112.506 13.2867 112.953 12.9333 113.513 12.68C114.086 12.4133 114.726 12.28 115.433 12.28C115.926 12.28 116.413 12.3467 116.893 12.48C117.386 12.6133 117.839 12.8067 118.253 13.06C118.666 13.3133 119.013 13.6133 119.293 13.96L118.113 15.26C117.859 15.0067 117.579 14.7867 117.273 14.6C116.979 14.4 116.679 14.2467 116.373 14.14C116.066 14.0333 115.786 13.98 115.533 13.98C115.253 13.98 114.999 14.0067 114.773 14.06C114.546 14.1133 114.353 14.1933 114.193 14.3C114.046 14.4067 113.933 14.54 113.853 14.7C113.773 14.86 113.733 15.04 113.733 15.24C113.746 15.4133 113.786 15.58 113.853 15.74C113.933 15.8867 114.039 16.0133 114.173 16.12C114.319 16.2267 114.539 16.34 114.833 16.46C115.126 16.58 115.499 16.6933 115.953 16.8C116.619 16.9733 117.166 17.1667 117.593 17.38C118.033 17.58 118.379 17.8133 118.633 18.08C118.899 18.3333 119.086 18.6267 119.193 18.96C119.299 19.2933 119.353 19.6667 119.353 20.08C119.353 20.68 119.179 21.22 118.833 21.7C118.499 22.1667 118.046 22.5333 117.473 22.8C116.899 23.0667 116.259 23.2 115.553 23.2ZM126.523 23.2C125.443 23.2 124.483 22.9733 123.643 22.52C122.816 22.0533 122.163 21.42 121.683 20.62C121.216 19.82 120.983 18.9 120.983 17.86C120.983 17.0333 121.116 16.28 121.383 15.6C121.65 14.92 122.016 14.3333 122.483 13.84C122.963 13.3333 123.53 12.9467 124.183 12.68C124.85 12.4 125.57 12.26 126.343 12.26C127.023 12.26 127.656 12.3933 128.243 12.66C128.83 12.9133 129.336 13.2667 129.763 13.72C130.203 14.1733 130.536 14.7133 130.763 15.34C131.003 15.9533 131.116 16.6267 131.103 17.36L131.083 18.24H122.503L122.043 16.6H129.303L129.003 16.94V16.46C128.963 16.02 128.816 15.6267 128.563 15.28C128.31 14.9333 127.99 14.66 127.603 14.46C127.216 14.26 126.796 14.16 126.343 14.16C125.623 14.16 125.016 14.3 124.523 14.58C124.03 14.8467 123.656 15.2467 123.403 15.78C123.15 16.3 123.023 16.9467 123.023 17.72C123.023 18.4533 123.176 19.0933 123.483 19.64C123.79 20.1733 124.223 20.5867 124.783 20.88C125.343 21.1733 125.99 21.32 126.723 21.32C127.243 21.32 127.723 21.2333 128.163 21.06C128.616 20.8867 129.103 20.5733 129.623 20.12L130.663 21.58C130.343 21.9 129.95 22.18 129.483 22.42C129.03 22.66 128.543 22.8533 128.023 23C127.516 23.1333 127.016 23.2 126.523 23.2ZM133.342 23V12.5H135.402V14.66L135.042 14.9C135.175 14.4333 135.435 14.0067 135.822 13.62C136.209 13.22 136.669 12.9 137.202 12.66C137.735 12.4067 138.282 12.28 138.842 12.28C139.642 12.28 140.309 12.44 140.842 12.76C141.375 13.0667 141.775 13.54 142.042 14.18C142.309 14.82 142.442 15.6267 142.442 16.6V23H140.382V16.74C140.382 16.14 140.302 15.6467 140.142 15.26C139.982 14.86 139.735 14.5733 139.402 14.4C139.069 14.2133 138.655 14.1333 138.162 14.16C137.762 14.16 137.395 14.2267 137.062 14.36C136.729 14.48 136.435 14.6533 136.182 14.88C135.942 15.1067 135.749 15.3733 135.602 15.68C135.469 15.9733 135.402 16.2933 135.402 16.64V23H134.382C134.209 23 134.035 23 133.862 23C133.689 23 133.515 23 133.342 23ZM149.616 23.2C148.656 23.2 147.796 22.9667 147.036 22.5C146.29 22.02 145.696 21.3733 145.256 20.56C144.816 19.7333 144.596 18.7933 144.596 17.74C144.596 16.6867 144.81 15.7533 145.236 14.94C145.676 14.1133 146.27 13.4667 147.016 13C147.763 12.52 148.61 12.28 149.556 12.28C150.076 12.28 150.576 12.3667 151.056 12.54C151.55 12.7 151.99 12.9267 152.376 13.22C152.763 13.5 153.063 13.8133 153.276 14.16C153.503 14.4933 153.616 14.8333 153.616 15.18L153.016 15.22V8.2H155.076V23H153.016V20.5H153.416C153.416 20.82 153.31 21.14 153.096 21.46C152.883 21.7667 152.596 22.0533 152.236 22.32C151.89 22.5867 151.483 22.8 151.016 22.96C150.563 23.12 150.096 23.2 149.616 23.2ZM149.896 21.42C150.523 21.42 151.076 21.26 151.556 20.94C152.036 20.62 152.41 20.1867 152.676 19.64C152.956 19.08 153.096 18.4467 153.096 17.74C153.096 17.0333 152.956 16.4067 152.676 15.86C152.41 15.3 152.036 14.86 151.556 14.54C151.076 14.22 150.523 14.06 149.896 14.06C149.27 14.06 148.716 14.22 148.236 14.54C147.756 14.86 147.376 15.3 147.096 15.86C146.83 16.4067 146.696 17.0333 146.696 17.74C146.696 18.4467 146.83 19.08 147.096 19.64C147.376 20.1867 147.756 20.62 148.236 20.94C148.716 21.26 149.27 21.42 149.896 21.42ZM162.812 23.2C161.732 23.2 160.772 22.9733 159.932 22.52C159.106 22.0533 158.452 21.42 157.972 20.62C157.506 19.82 157.272 18.9 157.272 17.86C157.272 17.0333 157.406 16.28 157.672 15.6C157.939 14.92 158.306 14.3333 158.772 13.84C159.252 13.3333 159.819 12.9467 160.472 12.68C161.139 12.4 161.859 12.26 162.632 12.26C163.312 12.26 163.946 12.3933 164.532 12.66C165.119 12.9133 165.626 13.2667 166.052 13.72C166.492 14.1733 166.826 14.7133 167.052 15.34C167.292 15.9533 167.406 16.6267 167.392 17.36L167.372 18.24H158.792L158.332 16.6H165.592L165.292 16.94V16.46C165.252 16.02 165.106 15.6267 164.852 15.28C164.599 14.9333 164.279 14.66 163.892 14.46C163.506 14.26 163.086 14.16 162.632 14.16C161.912 14.16 161.306 14.3 160.812 14.58C160.319 14.8467 159.946 15.2467 159.692 15.78C159.439 16.3 159.312 16.9467 159.312 17.72C159.312 18.4533 159.466 19.0933 159.772 19.64C160.079 20.1733 160.512 20.5867 161.072 20.88C161.632 21.1733 162.279 21.32 163.012 21.32C163.532 21.32 164.012 21.2333 164.452 21.06C164.906 20.8867 165.392 20.5733 165.912 20.12L166.952 21.58C166.632 21.9 166.239 22.18 165.772 22.42C165.319 22.66 164.832 22.8533 164.312 23C163.806 23.1333 163.306 23.2 162.812 23.2ZM169.631 23V12.5H171.711V15.8L171.511 15C171.658 14.4933 171.904 14.0333 172.251 13.62C172.611 13.2067 173.018 12.88 173.471 12.64C173.938 12.4 174.418 12.28 174.911 12.28C175.138 12.28 175.351 12.3 175.551 12.34C175.764 12.38 175.931 12.4267 176.051 12.48L175.511 14.72C175.351 14.6533 175.171 14.6 174.971 14.56C174.784 14.5067 174.598 14.48 174.411 14.48C174.051 14.48 173.704 14.5533 173.371 14.7C173.051 14.8333 172.764 15.0267 172.511 15.28C172.271 15.52 172.078 15.8067 171.931 16.14C171.784 16.46 171.711 16.8133 171.711 17.2V23H169.631Z" fill="white"/>
<defs>
<linearGradient id="paint0_linear_1_162" x1="48.495" y1="8.57509" x2="29.9403" y2="19.7789" gradientUnits="userSpaceOnUse">
<stop offset="0.0104167" stop-color="#0429EC"/>
<stop offset="0.1875" stop-color="#0429EC"/>
<stop offset="1" stop-color="#0A1361"/>
</linearGradient>
<linearGradient id="paint1_linear_1_162" x1="22.9905" y1="10.8574" x2="22.9905" y2="31.5245" gradientUnits="userSpaceOnUse">
<stop stop-color="#0728DA"/>
<stop offset="1" stop-color="#2AB3FF"/>
</linearGradient>
<linearGradient id="paint2_linear_1_162" x1="29.9702" y1="1.50928" x2="0.0059724" y2="31.4285" gradientUnits="userSpaceOnUse">
<stop stop-color="#B7E5FF"/>
<stop offset="1" stop-color="#15ABFF"/>
</linearGradient>
</defs>
</svg>
