<svg width="49" height="49" viewBox="0 0 49 49" fill="none" xmlns="http://www.w3.org/2000/svg">
<path fill-rule="evenodd" clip-rule="evenodd" d="M26.3017 4.97693C25.1878 4.34098 23.8152 4.34098 22.7013 4.97693L8.30244 13.1972C7.18888 13.833 6.50293 15.0076 6.50293 16.2789V32.7211C6.50293 32.8589 6.511 32.9957 6.5268 33.1307L6.5 33.1712V33.614C6.5 34.332 6.88488 34.9949 7.50841 35.3509L10.4514 37.0311L10.4521 37.03L11.965 37.8937L11.9644 37.8948L16.5851 40.5328L16.5857 40.5316L22.7013 44.023C23.8152 44.659 25.1878 44.659 26.3017 44.023L40.7006 35.8027C41.8141 35.167 42.5001 33.9923 42.5001 32.7211V16.2789C42.5001 15.0076 41.8141 13.833 40.7006 13.1972L26.3017 4.97693ZM23.7036 16.0185L11.8573 34.8019L13.3451 35.6515L25.4285 16.0185H31.263L17.9375 38.274L23.9589 41.7127C24.3303 41.9248 24.7879 41.9248 25.1593 41.7127L30.2248 38.82L24.6481 30.1935L28.0678 24.5294L35.3461 35.8954L36.8055 35.062L29.0577 22.765L32.0275 17.8423L40.0079 30.045V16.2732C40.0079 15.8495 39.7793 15.458 39.4082 15.2461L25.1593 7.10898C24.7879 6.8969 24.3303 6.8969 23.9589 7.10898L9.71005 15.2461C9.33894 15.458 9.11035 15.8495 9.11035 16.2732V29.2226L16.152 18.5706C17.2046 16.9783 18.9989 16.0185 20.9231 16.0185H23.7036Z" fill="white"/>
</svg>
