<svg width="49" height="49" viewBox="0 0 49 49" fill="none" xmlns="http://www.w3.org/2000/svg">
<path fill-rule="evenodd" clip-rule="evenodd" d="M17.2645 38.5H11.636C10.3016 38.5 9.63431 38.5 9.23471 38.2366C8.80284 37.9521 8.53036 37.4746 8.50151 36.9517C8.47473 36.4678 8.80522 35.8778 9.46618 34.698L9.46648 34.6976L21.7896 12.6997C22.4603 11.5024 22.7957 10.9037 23.2224 10.6809C23.6834 10.4401 24.23 10.4397 24.6914 10.6798C25.1184 10.902 25.4546 11.5002 26.127 12.6965L28.9692 17.7528L28.9692 17.7529C29.4582 18.6227 29.7027 19.0577 29.8102 19.5166C29.9272 20.0162 29.9275 20.5367 29.8109 21.0363C29.7038 21.4953 29.4596 21.9306 28.9713 22.8009L21.6022 35.9366C21.1069 36.8197 20.8591 37.2612 20.5198 37.5913C20.1503 37.9505 19.7024 38.2153 19.2127 38.3637C18.7628 38.5 18.2634 38.5 17.2645 38.5ZM37.3451 38.5H30.8195C29.473 38.5 28.7996 38.5 28.3988 38.2344C27.9656 37.9474 27.694 37.4663 27.6684 36.9409C27.6446 36.4547 27.9835 35.8622 28.6612 34.6776L31.9186 28.9831C32.5878 27.8135 32.9224 27.2286 33.346 27.0095C33.8038 26.7728 34.3451 26.7724 34.8033 27.0084C35.2273 27.2268 35.5626 27.8112 36.2333 28.9797L36.2335 28.9801L39.5017 34.6744C40.182 35.8598 40.5221 36.4526 40.4989 36.9392C40.4737 37.465 40.2022 37.9466 39.7689 38.2341C39.368 38.5 38.6937 38.5 37.3451 38.5Z" fill="white"/>
</svg>
