<svg width="48" height="49" viewBox="0 0 48 49" fill="none" xmlns="http://www.w3.org/2000/svg">
<path d="M14.1764 12.3205L24.0002 6.5L33.824 12.3205L30.2122 14.4707L24.0002 10.8005L17.7878 14.4707L14.1764 12.3205ZM33.824 19.661L30.2122 17.5107L24.0002 21.1811L17.7878 17.5107L14.1764 19.661V23.9615L20.3884 27.6315V34.9722L24.0002 37.1225L27.6119 34.9722V27.6315L33.824 23.9615V19.661ZM33.824 31.3019V27.0013L30.2122 29.1516V33.4521L33.824 31.3019ZM36.3882 32.822L30.1762 36.4919V40.7925L40 34.9722V23.3313L36.3882 25.4812V32.822ZM32.7764 15.9906L36.3882 18.1409V22.4414L40 20.2912V15.9906L36.3882 13.8405L32.7764 15.9906ZM20.3884 38.0492V42.3497L24.0002 44.5L27.6119 42.3497V38.0492L24.0002 40.1995L20.3884 38.0492ZM14.1764 31.3019L17.7878 33.4521V29.1516L14.1764 27.0013V31.3019ZM20.3884 15.9906L24.0002 18.1409L27.6119 15.9906L24.0002 13.8405L20.3884 15.9906ZM11.6118 18.1409L15.2235 15.9906L11.6118 13.8405L8 15.9906V20.2912L11.6118 22.4414V18.1409ZM11.6118 25.4812L8 23.3313V34.9722L17.8241 40.7925V36.4919L11.6118 32.822V25.4812Z" fill="white"/>
</svg>
