<svg width="48" height="49" viewBox="0 0 48 49" fill="none" xmlns="http://www.w3.org/2000/svg">
<path fill-rule="evenodd" clip-rule="evenodd" d="M14.7704 15.2704C16.8855 10.1239 21.9481 6.5 27.8571 6.5C35.668 6.5 42 12.832 42 20.6429C42 26.5519 38.3761 31.6145 33.2296 33.7296C31.1145 38.8761 26.0519 42.5 20.1429 42.5C12.332 42.5 6 36.168 6 28.3571C6 22.4481 9.62387 17.3855 14.7704 15.2704ZM19.1948 14.2456C21.1562 11.5941 24.3059 9.875 27.8571 9.875C33.8041 9.875 38.625 14.6959 38.625 20.6429C38.625 24.1941 36.9059 27.3438 34.2544 29.3052C34.2752 28.9919 34.2857 28.6757 34.2857 28.3571C34.2857 20.5463 27.9537 14.2143 20.1429 14.2143C19.8243 14.2143 19.5081 14.2248 19.1948 14.2456ZM28.8052 34.7544C26.8438 37.4059 23.6941 39.125 20.1429 39.125C14.1959 39.125 9.375 34.3041 9.375 28.3571C9.375 24.8059 11.0941 21.6562 13.7456 19.6948C13.7248 20.0081 13.7143 20.3243 13.7143 20.6429C13.7143 28.4537 20.0463 34.7857 27.8571 34.7857C28.1757 34.7857 28.4919 34.7752 28.8052 34.7544ZM30.5669 31.0669C29.7011 31.2913 28.7931 31.4107 27.8571 31.4107C21.9102 31.4107 17.0893 26.5898 17.0893 20.6429C17.0893 19.7069 17.2087 18.7989 17.4331 17.9331C18.2989 17.7087 19.2069 17.5893 20.1429 17.5893C26.0898 17.5893 30.9107 22.4102 30.9107 28.3571C30.9107 29.2931 30.7913 30.2011 30.5669 31.0669Z" fill="white"/>
</svg>
