<svg width="48" height="49" viewBox="0 0 48 49" fill="none" xmlns="http://www.w3.org/2000/svg">
<path d="M22.2433 4.86401C23.229 4.37866 24.7288 4.37866 25.7144 4.86401L35.7723 9.81652C36.3659 10.1088 36.6919 10.5444 36.7503 10.994H36.7599V35.8879C36.7468 36.3784 36.4177 36.8655 35.7723 37.1835L25.7144 42.136C24.7288 42.6213 23.229 42.6213 22.2433 42.136L12.1855 37.1835C11.5427 36.867 11.2343 36.3763 11.219 35.8879C11.2175 35.8398 11.2173 35.7998 11.2188 35.7665L11.2187 11.1539C11.2177 11.127 11.2176 11.1001 11.2184 11.0732L11.219 10.994L11.2235 10.994C11.2682 10.5394 11.5794 10.115 12.1855 9.81652L22.2433 4.86401ZM35.1766 24.8822L25.7144 29.5414C24.7288 30.0268 23.229 30.0268 22.2433 29.5414L12.8019 24.8926V35.8387L22.2433 40.4631C22.7765 40.7288 23.3298 40.9876 23.8709 41.0206L23.9789 41.0239C24.5427 41.0256 25.0901 40.7588 25.6451 40.5061L35.1766 35.7989V24.8822ZM9.58311 35.3467C9.58311 36.3003 9.70202 36.9273 9.9381 37.369C10.1338 37.7351 10.4274 38.0147 10.9635 38.3553L10.9941 38.3746C11.1117 38.4485 11.2413 38.526 11.3991 38.6168L11.5851 38.7231L12.1564 39.0446L11.337 40.3075L10.6976 39.9474L10.5901 39.8859C10.4053 39.7794 10.252 39.6882 10.1091 39.5983C8.58123 38.6379 8.01141 37.5911 8.00017 35.4129L8 35.3467H9.58311ZM23.1871 18.2099C23.1139 18.2334 23.0453 18.2605 22.9827 18.2913L12.9249 23.2438C12.9143 23.249 12.9043 23.2541 12.8947 23.2592L12.8862 23.2638L12.902 23.2722L12.9249 23.2838L22.9827 28.2364C23.0453 28.2672 23.1139 28.2943 23.1871 28.3177V18.2099ZM24.7707 18.2099V28.3177C24.8439 28.2943 24.9125 28.2672 24.9751 28.2364L35.0329 23.2838C35.0435 23.2786 35.0535 23.2735 35.0631 23.2684L35.0716 23.2638L35.0558 23.2554L35.0329 23.2438L24.9751 18.2913C24.9125 18.2605 24.8439 18.2334 24.7707 18.2099ZM35.1766 12.7599L26.1541 17.2027L35.1766 21.6454V12.7599ZM12.8019 12.7703V21.635L21.8034 17.2027L12.8019 12.7703ZM24.9751 6.16908C24.4521 5.91153 23.5057 5.91153 22.9827 6.16908L12.9249 11.1216C12.9143 11.1268 12.9043 11.1319 12.8947 11.137L12.8862 11.1416L12.902 11.15L12.9249 11.1617L22.9827 16.1142C23.5057 16.3717 24.4521 16.3717 24.9751 16.1142L35.0329 11.1617C35.0435 11.1565 35.0535 11.1513 35.0631 11.1462L35.0716 11.1416L35.0558 11.1332L35.0329 11.1216L24.9751 6.16908ZM36.663 6.71217L37.3024 7.07219L37.4099 7.13371C37.5947 7.2401 37.748 7.3315 37.8909 7.42134C39.4188 8.38163 39.9886 9.42862 39.9997 11.6066L40 11.673H38.4169C38.4169 10.7192 38.298 10.0923 38.0619 9.65062C37.8662 9.28458 37.5726 9.00483 37.0365 8.66444L37.0059 8.64511C36.8883 8.57116 36.7587 8.4937 36.6009 8.40265L36.4149 8.29643L35.8436 7.97503L36.663 6.71217Z" fill="white"/>
</svg>
