<svg width="48" height="49" viewBox="0 0 48 49" fill="none" xmlns="http://www.w3.org/2000/svg">
<path fill-rule="evenodd" clip-rule="evenodd" d="M9.20147 12.971L24.0613 27.4196L38.7352 13.2716L38.1756 12.6704C34.5392 8.7572 29.3151 6.5 23.8754 6.5H23.8438C18.4654 6.5 13.4607 8.6078 9.79267 12.3698L9.20147 12.971ZM24.0632 25.0418L11.6276 12.971C14.9219 9.8714 19.2425 8.1848 23.8754 8.1848H23.907C28.5696 8.1848 33.0464 10.0226 36.3426 13.2122L24.0632 25.0418Z" fill="white"/>
<path d="M37.6793 16.8248L39.0476 15.5L39.388 16.0418C41.0963 18.7742 41.9997 21.9072 42 25.1012C41.9701 34.7042 33.9164 42.5 24 42.5H23.9683C14.0519 42.5 5.96849 34.643 6.00009 25.0418C6.00281 21.8442 6.91697 18.7093 8.64188 15.9824L8.95235 15.4712L10.5995 17.066C10.289 17.516 10.0083 17.9984 9.82241 18.5402C8.51751 22.0016 10.382 25.8248 13.9887 27.0884C16.1341 27.8102 18.404 27.479 20.1758 26.336L24 30.0692L28.3837 25.8248C28.789 26.0966 29.2538 26.3072 29.752 26.4872C33.2657 27.6914 37.1197 25.9148 38.3634 22.5434C39.1089 20.558 38.7668 18.4808 37.6793 16.8248Z" fill="white"/>
<path d="M11.8767 21.1898C11.8759 20.4082 12.1376 19.6476 12.6222 19.0226L17.7831 23.9888C17.1622 24.4694 16.3851 24.7412 15.5447 24.7412C13.5239 24.7412 11.8767 23.1464 11.8767 21.1898Z" fill="white"/>
<path d="M30.6221 23.6864C31.2133 24.077 31.8974 24.2876 32.6745 24.2876C34.6954 24.2876 36.3426 22.6928 36.3426 20.7362C36.3426 20.0144 36.125 19.3214 35.7216 18.749L30.6221 23.6864Z" fill="white"/>
</svg>
