<svg width="49" height="49" viewBox="0 0 49 49" fill="none" xmlns="http://www.w3.org/2000/svg">
<path fill-rule="evenodd" clip-rule="evenodd" d="M21.6875 23.3195V14.0938C21.6875 9.89984 18.2877 6.5 14.0938 6.5C9.89984 6.5 6.5 9.89984 6.5 14.0938V34.9062C6.5 39.1002 9.89984 42.5 14.0938 42.5C18.2877 42.5 21.6875 39.1002 21.6875 34.9062V26.1379C22.5638 26.0786 23.5001 26.0469 24.5 26.0469C25.4869 26.0469 26.4237 26.0205 27.3125 25.9701V34.9062C27.3125 39.1002 30.7123 42.5 34.9062 42.5C39.1002 42.5 42.5 39.1002 42.5 34.9062V14.0938C42.5 9.89984 39.1002 6.5 34.9062 6.5C30.7123 6.5 27.3125 9.89984 27.3125 14.0938V23.1528C26.4356 23.2059 25.4993 23.2344 24.5 23.2344C23.5135 23.2344 22.5767 23.2636 21.6875 23.3195ZM18.875 23.6044V14.0938C18.875 11.4531 16.7344 9.3125 14.0938 9.3125C11.4531 9.3125 9.3125 11.4531 9.3125 14.0938V27.4962C9.6185 27.2173 9.95306 26.945 10.3179 26.6818C12.2599 25.2808 15.0264 24.156 18.875 23.6044ZM30.125 25.713V34.9062C30.125 37.5469 32.2656 39.6875 34.9062 39.6875C37.5469 39.6875 39.6875 37.5469 39.6875 34.9062V22.1997C39.3633 22.4667 39.008 22.7263 38.6198 22.9759C36.6903 24.2163 33.9462 25.2189 30.125 25.713ZM39.6875 17.0469C39.6875 17.7458 39.2377 19.2351 37.0989 20.6101C35.6501 21.5415 33.4324 22.4081 30.125 22.8751V14.0938C30.125 11.4531 32.2656 9.3125 34.9062 9.3125C37.5469 9.3125 39.6875 11.4531 39.6875 14.0938V17.0469ZM18.875 26.4484C15.5961 26.9667 13.4002 27.9261 11.9634 28.9627C9.84182 30.4933 9.3125 32.2263 9.3125 33.2188V34.9062C9.3125 37.5469 11.4531 39.6875 14.0938 39.6875C16.7344 39.6875 18.875 37.5469 18.875 34.9062V26.4484Z" fill="white"/>
</svg>
