<svg width="48" height="49" viewBox="0 0 48 49" fill="none" xmlns="http://www.w3.org/2000/svg">
<path d="M29.7368 40.7812C28.797 41.2511 28.1052 41.8669 27.7103 42.3024C27.5442 42.4857 27.2484 42.5106 27.0797 42.3295C25.0357 40.1351 24.3455 37.9107 24.2581 37.0367C23.9034 32.6222 25.953 29.5084 27.8449 26.9464C29.1604 25.1651 30.1344 22.7188 30.5911 21.3154C30.6775 21.05 31.0001 20.9456 31.2096 21.1302C32.4687 22.2397 34.495 24.5209 35.1367 27.1435C36.0433 30.8485 35.5309 33.0558 34.6637 35.263C33.7966 37.4703 31.3134 39.9929 29.7368 40.7812Z" fill="white"/>
<path d="M19.2524 33.4499C18.977 36.2869 20.5261 39.8919 21.6404 41.9056C21.806 42.2048 21.5499 42.5698 21.2177 42.4885C13.8282 40.6795 12 33.747 12 30.1785C12 26.4735 14.2072 23.1626 18.5823 18.8269C21.8641 15.5748 22.8611 9.80465 22.9836 6.8448C22.9948 6.57449 23.259 6.39981 23.4746 6.56318C25.1811 7.85599 27.569 12.8119 27.569 17.408C27.569 22.4531 19.7881 27.9318 19.2524 33.4499Z" fill="white"/>
</svg>
