<svg width="49" height="49" viewBox="0 0 49 49" fill="none" xmlns="http://www.w3.org/2000/svg">
<path fill-rule="evenodd" clip-rule="evenodd" d="M29.1466 43.9574C37.9515 41.8626 44.5 33.946 44.5 24.5C44.5 13.4543 35.5457 4.5 24.5 4.5C13.4543 4.5 4.5 13.4543 4.5 24.5C4.5 32.7921 9.54637 39.9056 16.7356 42.9369L19.6623 35.9454C19.7999 35.6701 20.2286 35.1431 20.8422 35.2374C21.6092 35.3554 25.149 35.4144 26.2699 33.6445C25.4046 33.2315 23.0723 32.736 20.6652 34.0575L22.2581 31.1077C23.5757 31.5206 26.6711 31.8156 28.5118 29.6917C27.7448 29.2984 25.5502 28.7714 22.9071 29.8097L24.559 27.3908C26.0143 27.5482 29.3142 27.3554 30.8717 25.3259C29.8294 25.0703 27.3437 24.795 25.7389 25.7389C26.0536 25.2866 27.0723 24.205 28.6298 23.497C30.5767 22.6121 31.4617 19.9572 31.5797 18.6593C30.557 18.7773 28.2286 19.6858 27.0959 22.3761C25.9631 25.0664 25.562 25.4636 25.503 25.3259C25.6603 24.028 25.7507 21.2434 24.854 20.4882C24.4213 20.9405 23.5561 22.3407 23.5561 24.323C23.5561 26.3053 23.9887 26.8402 24.205 26.8599L22.6121 29.3967C22.5728 28.0791 22.1519 25.208 20.7832 24.264C20.3112 25.6013 19.8392 28.7596 21.7271 30.6947L20.3112 33.6445C20.3309 32.6022 19.969 30.0929 18.3643 28.3938C18.03 29.4164 17.6092 31.8628 18.6003 33.4675C18.8166 33.8412 19.3083 34.6593 19.5443 34.9425L18.6593 37.1254C17.499 36.7517 14.9661 35.7684 14.1165 34.8245C13.5549 34.2005 13.2408 33.5434 12.9735 32.9843C12.7354 32.4862 12.5344 32.0658 12.2286 31.8156C11.5797 31.2846 10.9307 30.3407 10.8127 29.4557C10.6947 28.5708 9.98673 28.1578 9.45576 28.0398C8.92479 27.9218 8.21682 26.8009 8.21682 25.267C8.21682 24.44 8.28541 24.1274 8.34864 23.8393C8.40269 23.5931 8.45281 23.3647 8.45281 22.8481C8.45281 22.2635 8.35655 21.9357 8.26443 21.6219C8.17989 21.334 8.09883 21.0579 8.09883 20.6062C8.09883 19.747 8.92981 19.2299 9.56842 18.8325C9.63139 18.7934 9.6925 18.7553 9.75075 18.7183C10.1828 18.4433 10.5888 17.9591 10.9511 17.5269C11.133 17.31 11.3039 17.1061 11.4617 16.9484C11.6492 16.7608 12.0418 16.5266 12.469 16.2718C13.1168 15.8854 13.8442 15.4515 14.0575 15.0605C14.123 14.9404 14.1824 14.8163 14.2429 14.6901C14.5093 14.1338 14.7959 13.5354 15.7094 13.0546C15.805 13.0042 15.9011 12.9539 15.9973 12.9035C17.0295 12.3627 18.0858 11.8092 18.8953 11.1077C19.7802 10.3407 21.4912 9.69173 23.0841 9.69173C24.677 9.69173 32.1106 10.5177 33.5856 11.8156C35.0605 13.1136 37.2434 17.5383 37.2434 18.7773C37.2434 19.4828 37.186 19.7675 37.1365 20.0125C37.0992 20.1978 37.0664 20.3604 37.0664 20.6652C37.0664 21.2316 39.2296 22.9857 40.3112 23.792C40.4882 23.8904 40.8186 24.1578 40.7242 24.441C40.6298 24.7242 39.8589 25.4243 39.4853 25.7389C39.3279 25.8373 39.0487 26.1283 39.1903 26.5059C39.2393 26.6367 39.2839 26.7358 39.3226 26.822C39.4236 27.0468 39.4853 27.184 39.4853 27.5678C39.4853 27.8263 39.3874 27.8891 39.2869 27.9535C39.181 28.0213 39.0723 28.091 39.0723 28.3938C39.0723 28.6965 39.181 28.7663 39.2869 28.8341C39.3874 28.8985 39.4853 28.9613 39.4853 29.2198C39.4853 29.4609 39.3514 29.6047 39.2053 29.7617C39.0296 29.9503 38.8363 30.158 38.8363 30.5767C38.8363 30.7062 38.8498 30.8677 38.8647 31.0475C38.9385 31.9324 39.0493 33.2614 37.7743 33.4085C37.4534 33.4456 37.0395 33.4671 36.5807 33.491C34.8467 33.5812 32.4715 33.7048 32.0516 34.8245C31.6604 35.8678 30.0711 40.9623 29.1466 43.9574Z" fill="white"/>
</svg>
