<svg width="49" height="49" viewBox="0 0 49 49" fill="none" xmlns="http://www.w3.org/2000/svg">
<path d="M15.8463 19.4406C16.6138 13.273 21.8745 8.5 28.25 8.5C34.6255 8.5 39.8862 13.273 40.6537 19.4406C40.7602 20.2969 40.0504 21 39.1875 21H17.3125C16.4496 21 15.7398 20.2969 15.8463 19.4406Z" fill="white"/>
<path d="M11.9219 23.9688C11.9219 24.4002 11.5721 24.75 11.1406 24.75C10.7092 24.75 10.3594 24.4002 10.3594 23.9688C10.3594 23.5373 10.7092 23.1875 11.1406 23.1875C11.5721 23.1875 11.9219 23.5373 11.9219 23.9688Z" fill="white"/>
<path d="M5.28125 28.1875C5.71272 28.1875 6.0625 27.8377 6.0625 27.4062C6.0625 26.9748 5.71272 26.625 5.28125 26.625C4.84978 26.625 4.5 26.9748 4.5 27.4062C4.5 27.8377 4.84978 28.1875 5.28125 28.1875Z" fill="white"/>
<path d="M11.9219 30.8438C11.9219 31.2752 11.5721 31.625 11.1406 31.625C10.7092 31.625 10.3594 31.2752 10.3594 30.8438C10.3594 30.4123 10.7092 30.0625 11.1406 30.0625C11.5721 30.0625 11.9219 30.4123 11.9219 30.8438Z" fill="white"/>
<path d="M6.76562 35.0625C7.1971 35.0625 7.54688 34.7127 7.54688 34.2812C7.54688 33.8498 7.1971 33.5 6.76562 33.5C6.33415 33.5 5.98438 33.8498 5.98438 34.2812C5.98438 34.7127 6.33415 35.0625 6.76562 35.0625Z" fill="white"/>
<path d="M24.8906 37.7188C24.8906 38.1502 24.5408 38.5 24.1094 38.5C23.6779 38.5 23.3281 38.1502 23.3281 37.7188C23.3281 37.2873 23.6779 36.9375 24.1094 36.9375C24.5408 36.9375 24.8906 37.2873 24.8906 37.7188Z" fill="white"/>
<path d="M16.1406 41.9375C16.5721 41.9375 16.9219 41.5877 16.9219 41.1562C16.9219 40.7248 16.5721 40.375 16.1406 40.375C15.7092 40.375 15.3594 40.7248 15.3594 41.1562C15.3594 41.5877 15.7092 41.9375 16.1406 41.9375Z" fill="white"/>
<path d="M18.875 40.375C18.4435 40.375 18.0938 40.7248 18.0938 41.1562C18.0938 41.5877 18.4435 41.9375 18.875 41.9375H31.7656C32.1971 41.9375 32.5469 41.5877 32.5469 41.1562C32.5469 40.7248 32.1971 40.375 31.7656 40.375H18.875Z" fill="white"/>
<path d="M26.8438 36.9375C26.4123 36.9375 26.0625 37.2873 26.0625 37.7188C26.0625 38.1502 26.4123 38.5 26.8438 38.5H39.7344C40.1658 38.5 40.5156 38.1502 40.5156 37.7188C40.5156 37.2873 40.1658 36.9375 39.7344 36.9375H26.8438Z" fill="white"/>
<path d="M21.8438 34.2812C21.8438 33.8498 22.1935 33.5 22.625 33.5H43.7188C44.1502 33.5 44.5 33.8498 44.5 34.2812C44.5 34.7127 44.1502 35.0625 43.7188 35.0625H22.625C22.1935 35.0625 21.8438 34.7127 21.8438 34.2812Z" fill="white"/>
<path d="M9.5 33.5C9.06853 33.5 8.71875 33.8498 8.71875 34.2812C8.71875 34.7127 9.06853 35.0625 9.5 35.0625H19.5C19.9315 35.0625 20.2812 34.7127 20.2812 34.2812C20.2812 33.8498 19.9315 33.5 19.5 33.5H9.5Z" fill="white"/>
<path d="M13.0938 30.8438C13.0938 30.4123 13.4435 30.0625 13.875 30.0625H39.2656C39.6971 30.0625 40.0469 30.4123 40.0469 30.8438C40.0469 31.2752 39.6971 31.625 39.2656 31.625H13.875C13.4435 31.625 13.0938 31.2752 13.0938 30.8438Z" fill="white"/>
<path d="M8.01562 26.625C7.58415 26.625 7.23438 26.9748 7.23438 27.4062C7.23438 27.8377 7.58415 28.1875 8.01562 28.1875H29.0312C29.4627 28.1875 29.8125 27.8377 29.8125 27.4062C29.8125 26.9748 29.4627 26.625 29.0312 26.625H8.01562Z" fill="white"/>
<path d="M13.0938 23.9688C13.0938 23.5373 13.4435 23.1875 13.875 23.1875H42.7031C43.1346 23.1875 43.4844 23.5373 43.4844 23.9688C43.4844 24.4002 43.1346 24.75 42.7031 24.75H13.875C13.4435 24.75 13.0938 24.4002 13.0938 23.9688Z" fill="white"/>
</svg>
