<svg width="48" height="49" viewBox="0 0 48 49" fill="none" xmlns="http://www.w3.org/2000/svg">
<path d="M9.15761 22.2567C9.05974 22.3362 8.91091 22.2842 8.88885 22.1603C8.7361 21.3032 8.65641 20.421 8.65641 19.5203C8.65641 11.2248 15.4158 4.49991 23.7538 4.49991C32.0919 4.49991 38.8512 11.2248 38.8512 19.5203C38.8512 20.6413 38.7278 21.7337 38.4937 22.7846C38.4844 22.8263 38.459 22.8626 38.4229 22.8856C36.661 24.0062 34.4605 24.9081 32.041 24.9081C28.8183 24.9081 26.8614 23.57 24.869 22.2078C22.8034 20.7954 20.6997 19.3571 17.1077 19.3571C13.5731 19.3571 10.5673 21.1103 9.15761 22.2567Z" fill="white"/>
<path d="M9.66366 26.1072C10.6973 25.1278 13.7323 23.1122 17.2718 23.1122C20.1139 23.1122 22.2098 24.3812 24.4819 25.7991L24.6225 25.8869C26.8046 27.2497 29.2103 28.7521 32.3969 28.6628C36.3662 28.5515 38.9126 26.9305 39.7842 25.8465C40.1239 25.4241 40.0551 24.8076 39.6304 24.4697C39.2058 24.1317 38.5862 24.2002 38.2465 24.6227C37.8053 25.1713 35.8523 26.606 32.3415 26.7044C29.771 26.7764 27.8216 25.5706 25.5283 24.1395L25.5191 24.1337C23.2806 22.7367 20.7429 21.153 17.2718 21.153C13.0657 21.153 9.56936 23.491 8.30557 24.6885C7.91179 25.0616 7.89659 25.6817 8.27162 26.0735C8.64665 26.4652 9.26988 26.4803 9.66366 26.1072Z" fill="white"/>
<path d="M10.7897 27.0305C10.246 27.0305 9.80513 27.4691 9.80513 28.0101V34.2142C9.80513 34.7552 10.246 35.1938 10.7897 35.1938C11.3335 35.1938 11.7744 34.7552 11.7744 34.2142V28.0101C11.7744 27.4691 11.3335 27.0305 10.7897 27.0305Z" fill="white"/>
<path d="M13.4154 26.0509C13.4154 25.5099 13.8562 25.0713 14.4 25.0713C14.9438 25.0713 15.3846 25.5099 15.3846 26.0509V34.8673C15.3846 35.4083 14.9438 35.8468 14.4 35.8468C13.8562 35.8468 13.4154 35.4083 13.4154 34.8673V26.0509Z" fill="white"/>
<path d="M21.7846 26.3775C21.2408 26.3775 20.8 26.816 20.8 27.357V33.7244C20.8 34.2654 21.2408 34.704 21.7846 34.704C22.3284 34.704 22.7692 34.2654 22.7692 33.7244V27.357C22.7692 26.816 22.3284 26.3775 21.7846 26.3775Z" fill="white"/>
<path d="M24.5743 29.6428C24.5743 29.1018 25.0152 28.6632 25.559 28.6632C26.1027 28.6632 26.5436 29.1018 26.5436 29.6428V31.1122C26.5436 31.6532 26.1027 32.0917 25.559 32.0917C25.0152 32.0917 24.5743 31.6532 24.5743 31.1122V29.6428Z" fill="white"/>
<path d="M29.1692 30.1326C28.6254 30.1326 28.1846 30.5711 28.1846 31.1122V39.9285C28.1846 40.4695 28.6254 40.9081 29.1692 40.9081C29.713 40.9081 30.1538 40.4695 30.1538 39.9285V31.1122C30.1538 30.5711 29.713 30.1326 29.1692 30.1326Z" fill="white"/>
<path d="M31.959 31.4387C31.959 30.8977 32.3998 30.4591 32.9436 30.4591C33.4874 30.4591 33.9282 30.8977 33.9282 31.4387V38.9489C33.9282 39.4899 33.4874 39.9285 32.9436 39.9285C32.3998 39.9285 31.959 39.4899 31.959 38.9489V31.4387Z" fill="white"/>
<path d="M36.5538 29.4795C36.01 29.4795 35.5692 29.9181 35.5692 30.4591V33.7244C35.5692 34.2654 36.01 34.704 36.5538 34.704C37.0976 34.704 37.5384 34.2654 37.5384 33.7244V30.4591C37.5384 29.9181 37.0976 29.4795 36.5538 29.4795Z" fill="white"/>
<path d="M17.1897 26.0509C17.1897 25.5099 17.6306 25.0713 18.1743 25.0713C18.7181 25.0713 19.159 25.5099 19.159 26.0509V43.5203C19.159 44.0613 18.7181 44.4999 18.1743 44.4999C17.6306 44.4999 17.1897 44.0613 17.1897 43.5203V26.0509Z" fill="white"/>
</svg>
