<svg width="48" height="49" viewBox="0 0 48 49" fill="none" xmlns="http://www.w3.org/2000/svg">
<path fill-rule="evenodd" clip-rule="evenodd" d="M15.0258 10.7221C15.5695 10.426 16.2305 10.426 16.7742 10.7221L24.8742 15.1338C25.4456 15.4451 25.8 16.0356 25.8 16.6765V19.5456L22.2 21.5294V17.7148L15.9 14.2835L9.6 17.7148V24.4616L15.9 27.893L31.2258 19.5456C31.7695 19.2495 32.4305 19.2495 32.9742 19.5456L41.0742 23.9574C41.6456 24.2686 42 24.8591 42 25.5V34.3235C42 34.9644 41.6456 35.5549 41.0742 35.8662L32.9742 40.2779C32.4305 40.574 31.7695 40.574 31.2258 40.2779L23.1258 35.8662C22.5544 35.5549 22.2 34.9644 22.2 34.3235V31.4544L25.8 29.4706V33.2852L32.1 36.7165L38.4 33.2852V26.5384L32.1 23.107L16.7742 31.4544C16.2305 31.7505 15.5695 31.7505 15.0258 31.4544L6.92584 27.0426C6.35441 26.7314 6 26.1409 6 25.5V16.6765C6 16.0356 6.35441 15.4451 6.92584 15.1338L15.0258 10.7221Z" fill="white"/>
</svg>
