<svg width="22" height="22" viewBox="0 0 22 22" fill="none" xmlns="http://www.w3.org/2000/svg">
<path d="M10.8174 0.923313C16.6467 0.931624 21.4149 5.61133 21.4135 11.3227C21.4121 17.034 16.6415 21.7001 10.8123 21.6918C4.98301 21.6835 0.214767 17.0038 0.21618 11.2924C0.217594 5.58111 4.98815 0.915003 10.8174 0.923313Z" fill="#F7931A"/>
<path d="M15.6745 10.0167C15.8515 8.5459 14.7918 7.76557 13.2021 7.24409L13.7326 5.25453L12.4961 4.99316L11.9657 6.89618C11.6125 6.80914 11.2592 6.7221 10.9942 6.63519L11.5247 4.64563L10.2882 4.38426L9.7578 6.37382C9.49285 6.28691 7.28493 5.76455 7.28493 5.76455L7.01964 7.0622L7.90282 7.23653C8.43271 7.41036 8.52097 7.67009 8.43258 7.92957L7.1064 13.3794C7.01803 13.5524 6.92967 13.7253 6.5764 13.6383L5.69322 13.4639L4.98632 14.761C4.98632 14.761 7.19425 15.2833 7.45919 15.3702L6.92877 17.3598L8.16519 17.7077L8.69562 15.7181C9.04889 15.8052 9.40215 15.8922 9.6671 15.9791L9.13667 17.9687L10.3731 18.3166L10.9035 16.327C13.0232 16.6762 14.613 16.5919 15.2317 14.689C15.762 13.2187 15.2323 12.3526 14.0843 11.7452C14.8792 11.6598 15.4976 11.1415 15.6745 10.0167ZM12.8472 13.9068C12.4936 15.3774 9.93241 14.5949 9.04923 14.4206L9.75647 11.739C10.6397 11.9133 13.2892 12.3498 12.8472 13.9068ZM13.2898 10.0133C12.9362 11.3974 10.8166 10.7021 10.1101 10.528L10.7289 8.10592C11.3471 8.27987 13.6434 8.54275 13.2898 10.0133Z" fill="white"/>
</svg>
