<svg width="48" height="48" viewBox="0 0 48 48" fill="none" xmlns="http://www.w3.org/2000/svg">
<path d="M0.500002 24C0.500001 11.0213 11.0213 0.499999 24 0.499998C36.9787 0.499997 47.5 11.0213 47.5 24C47.5 36.9787 36.9787 47.5 24 47.5C11.0213 47.5 0.500003 36.9787 0.500002 24Z" fill="#0B124E" stroke="url(#paint0_linear_173_2469)"/>
<mask id="path-2-inside-1_173_2469" fill="white">
<path fill-rule="evenodd" clip-rule="evenodd" d="M17.2929 29.2929C16.9024 29.6834 16.9024 30.3166 17.2929 30.7071C17.6834 31.0976 18.3166 31.0976 18.7071 30.7071L24 25.4142L29.2929 30.7071C29.6834 31.0976 30.3166 31.0976 30.7071 30.7071C31.0976 30.3166 31.0976 29.6834 30.7071 29.2929L25.4142 24L30.7071 18.7071C31.0976 18.3166 31.0976 17.6834 30.7071 17.2929C30.3166 16.9024 29.6834 16.9024 29.2929 17.2929L24 22.5858L18.7071 17.2929C18.3166 16.9024 17.6834 16.9024 17.2929 17.2929C16.9024 17.6834 16.9024 18.3166 17.2929 18.7071L22.5858 24L17.2929 29.2929Z"/>
</mask>
<path fill-rule="evenodd" clip-rule="evenodd" d="M17.2929 29.2929C16.9024 29.6834 16.9024 30.3166 17.2929 30.7071C17.6834 31.0976 18.3166 31.0976 18.7071 30.7071L24 25.4142L29.2929 30.7071C29.6834 31.0976 30.3166 31.0976 30.7071 30.7071C31.0976 30.3166 31.0976 29.6834 30.7071 29.2929L25.4142 24L30.7071 18.7071C31.0976 18.3166 31.0976 17.6834 30.7071 17.2929C30.3166 16.9024 29.6834 16.9024 29.2929 17.2929L24 22.5858L18.7071 17.2929C18.3166 16.9024 17.6834 16.9024 17.2929 17.2929C16.9024 17.6834 16.9024 18.3166 17.2929 18.7071L22.5858 24L17.2929 29.2929Z" fill="#76A6EE"/>
<path d="M17.2929 30.7071L18 30L18 30L17.2929 30.7071ZM17.2929 29.2929L18 30L18 30L17.2929 29.2929ZM18.7071 30.7071L18 30L18 30L18.7071 30.7071ZM24 25.4142L24.7071 24.7071L24 24L23.2929 24.7071L24 25.4142ZM29.2929 30.7071L30 30L30 30L29.2929 30.7071ZM30.7071 30.7071L30 30L30 30L30.7071 30.7071ZM30.7071 29.2929L30 30L30 30L30.7071 29.2929ZM25.4142 24L24.7071 23.2929L24 24L24.7071 24.7071L25.4142 24ZM30.7071 18.7071L30 18L30 18L30.7071 18.7071ZM30.7071 17.2929L30 18L30 18L30.7071 17.2929ZM29.2929 17.2929L30 18L30 18L29.2929 17.2929ZM24 22.5858L23.2929 23.2929L24 24L24.7071 23.2929L24 22.5858ZM18.7071 17.2929L18 18L18 18L18.7071 17.2929ZM17.2929 17.2929L18 18L18 18L17.2929 17.2929ZM17.2929 18.7071L18 18L18 18L17.2929 18.7071ZM22.5858 24L23.2929 24.7071L24 24L23.2929 23.2929L22.5858 24ZM18 30V30L16.5858 28.5858C15.8047 29.3668 15.8047 30.6332 16.5858 31.4142L18 30ZM18 30H18L16.5858 31.4142C17.3668 32.1953 18.6332 32.1953 19.4142 31.4142L18 30ZM23.2929 24.7071L18 30L19.4142 31.4142L24.7071 26.1213L23.2929 24.7071ZM30 30L24.7071 24.7071L23.2929 26.1213L28.5858 31.4142L30 30ZM30 30H30L28.5858 31.4142C29.3668 32.1953 30.6332 32.1953 31.4142 31.4142L30 30ZM30 30V30L31.4142 31.4142C32.1953 30.6332 32.1953 29.3668 31.4142 28.5858L30 30ZM24.7071 24.7071L30 30L31.4142 28.5858L26.1213 23.2929L24.7071 24.7071ZM30 18L24.7071 23.2929L26.1213 24.7071L31.4142 19.4142L30 18ZM30 18V18L31.4142 19.4142C32.1953 18.6332 32.1953 17.3668 31.4142 16.5858L30 18ZM30 18H30L31.4142 16.5858C30.6332 15.8047 29.3668 15.8047 28.5858 16.5858L30 18ZM24.7071 23.2929L30 18L28.5858 16.5858L23.2929 21.8787L24.7071 23.2929ZM18 18L23.2929 23.2929L24.7071 21.8787L19.4142 16.5858L18 18ZM18 18H18L19.4142 16.5858C18.6332 15.8047 17.3668 15.8047 16.5858 16.5858L18 18ZM18 18V18L16.5858 16.5858C15.8047 17.3668 15.8047 18.6332 16.5858 19.4142L18 18ZM23.2929 23.2929L18 18L16.5858 19.4142L21.8787 24.7071L23.2929 23.2929ZM18 30L23.2929 24.7071L21.8787 23.2929L16.5858 28.5858L18 30Z" fill="url(#paint1_linear_173_2469)" mask="url(#path-2-inside-1_173_2469)"/>
<defs>
<linearGradient id="paint0_linear_173_2469" x1="24" y1="48" x2="24" y2="-1.71655e-06" gradientUnits="userSpaceOnUse">
<stop stop-color="#00A4FF" stop-opacity="0"/>
<stop offset="1" stop-color="#00A4FF"/>
</linearGradient>
<linearGradient id="paint1_linear_173_2469" x1="24" y1="17" x2="24" y2="31" gradientUnits="userSpaceOnUse">
<stop offset="0.427083" stop-color="#00A4FF" stop-opacity="0"/>
<stop offset="1" stop-color="#00A4FF"/>
</linearGradient>
</defs>
</svg>
