<svg width="14" height="14" viewBox="0 0 14 14" fill="none" xmlns="http://www.w3.org/2000/svg">
<path d="M6.99984 13.667C10.6798 13.667 13.6665 10.6803 13.6665 7.00033C13.6665 3.32032 10.6798 0.333658 6.99984 0.333658C3.31984 0.333657 0.333171 3.32032 0.333171 7.00032C0.33317 10.6803 3.31984 13.667 6.99984 13.667ZM6.33317 4.33366C6.33317 3.96547 6.63165 3.66699 6.99984 3.66699C7.36803 3.66699 7.6665 3.96547 7.6665 4.33366C7.6665 4.70185 7.36803 5.00032 6.99984 5.00032C6.63165 5.00032 6.33317 4.70185 6.33317 4.33366ZM6.33317 7.00033C6.33317 6.63213 6.63165 6.33366 6.99984 6.33366C7.36803 6.33366 7.6665 6.63213 7.6665 7.00032L7.6665 9.66699C7.6665 10.0352 7.36803 10.3337 6.99984 10.3337C6.63165 10.3337 6.33317 10.0352 6.33317 9.66699L6.33317 7.00033Z" fill="#76A6EE"/>
</svg>
