<svg width="13" height="14" viewBox="0 0 13 14" fill="none" xmlns="http://www.w3.org/2000/svg">
<path d="M9.38894 13.5H2.16667C1.58789 13.5 1.0438 13.2746 0.634586 12.8654C0.225371 12.4561 0 11.912 0 11.3333V4.11111C0 3.53236 0.225396 2.98827 0.634611 2.57906C1.04383 2.16985 1.58792 1.94445 2.1667 1.94445H5.0556C5.45449 1.94445 5.77783 2.26779 5.77783 2.66668C5.77783 3.06557 5.45449 3.38891 5.0556 3.38891H2.16667C1.97374 3.38891 1.7924 3.46404 1.65601 3.60042C1.51962 3.73681 1.44446 3.91818 1.44446 4.11111V11.3333C1.44446 11.5262 1.5196 11.7076 1.65601 11.844C1.7924 11.9804 1.97374 12.0555 2.16667 12.0555H9.38892C9.58184 12.0555 9.76319 11.9804 9.8996 11.844C10.036 11.7076 10.1111 11.5262 10.1111 11.3333V8.44444C10.1111 8.04555 10.4345 7.72224 10.8334 7.72224C11.2323 7.72224 11.5556 8.04557 11.5556 8.44444V11.3333C11.5556 11.9121 11.3302 12.4561 10.921 12.8654C10.5118 13.2746 9.96764 13.5 9.38894 13.5ZM5.0556 9.16664C4.87075 9.16664 4.68592 9.09615 4.54491 8.95512C4.26288 8.67309 4.26288 8.21577 4.54491 7.93373L10.5342 1.94445H7.9445C7.5456 1.94445 7.22229 1.62112 7.22229 1.22223C7.22229 0.823333 7.5456 0.5 7.9445 0.5H12.2779C12.3777 0.5 12.4729 0.520284 12.5594 0.556942C12.6402 0.591101 12.716 0.6406 12.7824 0.705464C12.7824 0.705489 12.7824 0.705489 12.7824 0.705514C12.7829 0.705994 12.7834 0.706448 12.7838 0.706927C12.784 0.707053 12.7841 0.707205 12.7843 0.707331C12.7846 0.707684 12.785 0.708062 12.7854 0.708441C12.7856 0.708693 12.7859 0.70892 12.7861 0.709172C12.7864 0.70945 12.7867 0.709753 12.7869 0.70998C12.7874 0.710484 12.788 0.711014 12.7885 0.711544C12.789 0.712049 12.7895 0.712604 12.79 0.713108C12.7903 0.71336 12.7906 0.713688 12.7908 0.713915C12.7911 0.714168 12.7913 0.714395 12.7916 0.714647C12.792 0.715026 12.7923 0.715379 12.7927 0.715782C12.7928 0.715883 12.793 0.71606 12.7931 0.716186C12.7935 0.716665 12.794 0.717145 12.7945 0.717624C12.7945 0.717649 12.7945 0.717649 12.7945 0.717675C12.8594 0.784077 12.9089 0.859915 12.943 0.940647C12.9797 1.02718 13 1.12229 13 1.2222V5.55553C13 5.95443 12.6766 6.27776 12.2777 6.27776C11.8788 6.27776 11.5555 5.95443 11.5555 5.55553V2.96584L5.56616 8.95515C5.42525 9.09618 5.24043 9.16664 5.0556 9.16664Z" fill="#76A6EE"/>
</svg>
