<svg width="26" height="25" viewBox="0 0 26 25" fill="none" xmlns="http://www.w3.org/2000/svg">
<g clip-path="url(#clip0_974_1534)">
<path d="M18.9397 18.6773L13.8489 15.7683V21.8869L18.9397 24.8215V18.6773Z" fill="#76A6EE"/>
<path d="M20.394 24.8216L25.1313 22.1135C25.3776 21.99 25.5333 21.7385 25.5333 21.4629V15.7686L20.394 18.6774V24.8216Z" fill="#76A6EE"/>
<path d="M12.8262 0.0604435L7.77954 2.69524L13.1215 5.72983L18.4634 2.69524L13.4167 0.0604435C13.2289 -0.0230775 13.0141 -0.0230775 12.8262 0.0604435Z" fill="#76A6EE"/>
<path d="M25.0683 14.3588L19.6669 11.6824L14.314 14.3588L19.6669 17.418L25.0683 14.3588Z" fill="#76A6EE"/>
<path d="M1.1116 22.1134L5.849 24.8215V18.6773L0.709717 15.7683V21.4629C0.709717 21.7384 0.865206 21.99 1.1116 22.1134Z" fill="#76A6EE"/>
<path d="M7.30347 24.8216L12.3943 21.9027V15.7686L7.30347 18.6774V24.8216Z" fill="#76A6EE"/>
<path d="M1.1748 14.3588L6.5762 17.418L11.9291 14.3588L6.5762 11.6824L1.1748 14.3588Z" fill="#76A6EE"/>
<path d="M13.8489 12.9658L18.9397 10.4198V4.08398L13.8489 6.99282V12.9658Z" fill="#76A6EE"/>
<path d="M7.30347 10.4198L12.3943 12.9657V6.99277L7.30347 4.08374V10.4198Z" fill="#76A6EE"/>
</g>
<defs>
<clipPath id="clip0_974_1534">
<rect width="24.8237" height="24.8237" fill="white" transform="translate(0.709717 0.0461426)"/>
</clipPath>
</defs>
</svg>
