<svg width="29" height="29" viewBox="0 0 29 29" fill="none" xmlns="http://www.w3.org/2000/svg">
<path d="M22.8066 8.9C22.9503 8.15705 22.9279 7.39153 22.7411 6.65824C22.5542 5.92495 22.2076 5.24204 21.726 4.65838C21.2444 4.07473 20.6397 3.60477 19.9552 3.28215C19.2707 2.95953 18.5233 2.79224 17.7666 2.79224C17.0099 2.79224 16.2626 2.95953 15.5781 3.28215C14.8936 3.60477 14.2889 4.07473 13.8073 4.65838C13.3256 5.24204 12.979 5.92495 12.7922 6.65824C12.6054 7.39153 12.583 8.15705 12.7266 8.9H22.8066Z" fill="white"/>
<path d="M27.5667 20.1V17.3C27.5667 17.1763 27.5175 17.0576 27.43 16.9701C27.3425 16.8825 27.2238 16.8334 27.1 16.8334H24.3C23.8049 16.8334 23.3302 17.03 22.9801 17.3801C22.63 17.7302 22.4333 18.205 22.4333 18.7C22.4333 19.1951 22.63 19.6699 22.9801 20.02C23.3302 20.37 23.8049 20.5667 24.3 20.5667H27.1C27.2238 20.5667 27.3425 20.5175 27.43 20.43C27.5175 20.3425 27.5667 20.2238 27.5667 20.1Z" fill="white"/>
<path d="M14.3898 2.92898C13.5254 2.06383 12.3803 1.53609 11.161 1.44096C9.94173 1.34583 8.72859 1.68958 7.74045 2.4102C6.75232 3.13081 6.05425 4.18084 5.77218 5.37086C5.49011 6.56087 5.64261 7.81252 6.20218 8.89998H11.7798C11.7293 8.59138 11.7026 8.27935 11.7 7.96665C11.6983 6.97028 11.943 5.98894 12.4123 5.11001C12.8816 4.23108 13.5609 3.48184 14.3898 2.92898Z" fill="white"/>
<path d="M26.1666 8.89996V5.63329C26.1666 5.50952 26.1174 5.39083 26.0299 5.30331C25.9424 5.21579 25.8237 5.16663 25.6999 5.16663H23.1487C23.6 6.03086 23.8349 6.99166 23.8333 7.96663C23.8307 8.27932 23.804 8.59136 23.7535 8.89996H26.1666Z" fill="white"/>
<path d="M7.49998 14.0333C8.01545 14.0333 8.43332 13.6154 8.43332 13.1C8.43332 12.5845 8.01545 12.1666 7.49998 12.1666C6.98452 12.1666 6.56665 12.5845 6.56665 13.1C6.56665 13.6154 6.98452 14.0333 7.49998 14.0333Z" fill="white"/>
<path d="M11.2334 19.6334C11.7488 19.6334 12.1667 19.2155 12.1667 18.7001C12.1667 18.1846 11.7488 17.7667 11.2334 17.7667C10.7179 17.7667 10.3 18.1846 10.3 18.7001C10.3 19.2155 10.7179 19.6334 11.2334 19.6334Z" fill="white"/>
<path d="M5.22828 22.3027C5.14015 22.1975 5.03006 22.1129 4.90574 22.0549C4.78142 21.9968 4.64589 21.9667 4.50868 21.9667H1.43335V25.7C1.43335 26.1951 1.63002 26.6699 1.98008 27.0199C2.33015 27.37 2.80495 27.5667 3.30002 27.5667H26.1667C26.2905 27.5667 26.4091 27.5175 26.4967 27.43C26.5842 27.3425 26.6334 27.2238 26.6334 27.1V21.5H24.3C23.5574 21.5 22.8452 21.205 22.3201 20.6799C21.795 20.1548 21.5 19.4426 21.5 18.7C21.5 17.9574 21.795 17.2452 22.3201 16.7201C22.8452 16.195 23.5574 15.9 24.3 15.9H26.6334V10.3C26.6334 10.1762 26.5842 10.0575 26.4967 9.97002C26.4091 9.8825 26.2905 9.83334 26.1667 9.83334H3.39802C2.67383 9.8332 1.97483 9.56754 1.43335 9.08667V15.4333H4.50868C4.64622 15.4332 4.78206 15.4029 4.90663 15.3447C5.0312 15.2864 5.14147 15.2015 5.22968 15.0959L5.98708 14.185C5.71451 13.812 5.58754 13.3522 5.63005 12.8922C5.67256 12.4322 5.88161 12.0035 6.21792 11.6867C6.55423 11.37 6.99465 11.1869 7.45642 11.172C7.91818 11.1571 8.36949 11.3113 8.72554 11.6057C9.08159 11.9001 9.31787 12.3144 9.38998 12.7708C9.46208 13.2271 9.36505 13.6941 9.11711 14.0839C8.86917 14.4737 8.4874 14.7596 8.04354 14.8878C7.59967 15.016 7.12428 14.9776 6.70668 14.78L5.94555 15.6947C5.7699 15.9051 5.55016 16.0744 5.30186 16.1905C5.05357 16.3066 4.78279 16.3668 4.50868 16.3667H1.43335V18.2333H9.43295C9.54653 17.7934 9.81666 17.41 10.1927 17.1551C10.5687 16.9001 11.0248 16.791 11.4755 16.8482C11.9263 16.9055 12.3406 17.1251 12.641 17.466C12.9413 17.8069 13.107 18.2457 13.107 18.7C13.107 19.1543 12.9413 19.5931 12.641 19.934C12.3406 20.2749 11.9263 20.4945 11.4755 20.5518C11.0248 20.609 10.5687 20.4999 10.1927 20.245C9.81666 19.99 9.54653 19.6066 9.43295 19.1667H1.43335V21.0333H4.50868C4.78253 21.0331 5.05308 21.093 5.30116 21.209C5.54923 21.325 5.76875 21.4941 5.94415 21.7044L6.70668 22.62C6.9539 22.4994 7.22496 22.4356 7.50002 22.4333C7.92229 22.4305 8.3332 22.57 8.6665 22.8293C8.99979 23.0886 9.23604 23.4526 9.33715 23.8626C9.43825 24.2726 9.39832 24.7047 9.22379 25.0893C9.04926 25.4738 8.75031 25.7883 8.37514 25.9822C7.99998 26.176 7.57046 26.2378 7.15585 26.1577C6.74124 26.0775 6.36571 25.8601 6.08982 25.5404C5.81392 25.2207 5.65374 24.8174 5.6351 24.3955C5.61646 23.9736 5.74046 23.5578 5.98708 23.215L5.22828 22.3027Z" fill="white"/>
<path d="M7.49998 25.2334C8.01545 25.2334 8.43332 24.8155 8.43332 24.3C8.43332 23.7846 8.01545 23.3667 7.49998 23.3667C6.98452 23.3667 6.56665 23.7846 6.56665 24.3C6.56665 24.8155 6.98452 25.2334 7.49998 25.2334Z" fill="white"/>
<path d="M1.43331 7.03796C1.43191 7.09387 1.43378 7.14981 1.43891 7.20549C1.49932 7.67968 1.73268 8.11487 2.09422 8.42758C2.45576 8.74029 2.92003 8.90851 3.39798 8.89996H5.16384C4.67079 7.71859 4.56763 6.41069 4.86938 5.16663H3.29998C2.80551 5.16859 2.33186 5.36589 1.98222 5.71553C1.63257 6.06517 1.43528 6.53883 1.43331 7.03329V7.03796Z" fill="white"/>
</svg>
