<svg width="24" height="24" viewBox="0 0 24 24" fill="none" xmlns="http://www.w3.org/2000/svg">
<path d="M8.78691 19.1416V22H16.1301V18.2923C16.1305 17.7962 16.034 17.305 15.8462 16.8475C15.6584 16.3899 15.3831 15.975 15.0364 15.6272C19.0841 14.9009 20.7778 12.3852 20.7778 9.39205C20.7778 7.93943 20.3041 6.59517 19.374 5.51742C19.9252 3.769 19.2994 2.28709 19.2161 2.06158C17.6659 1.91808 16.0584 3.09541 15.734 3.34727C14.778 3.08369 13.6929 2.94019 12.4757 2.94019C11.2643 2.94019 10.1821 3.07783 9.23474 3.33849C9.09982 3.23012 7.36592 1.85951 5.69805 2.0118C5.61193 2.2373 4.97177 3.75436 5.55739 5.5262C4.63877 6.60103 4.17085 7.93357 4.17085 9.38327C4.17085 12.3705 5.85307 14.8833 9.88926 15.6213C9.40698 16.0987 9.05676 16.7137 8.89313 17.402C8.14388 17.5923 6.66547 17.7856 5.90761 16.6405C4.85981 15.062 3.95555 14.4792 3.0685 14.9448C2.69531 15.3841 3.94406 15.6184 4.47227 16.538C4.7335 16.9773 4.89139 19.6073 8.78691 19.1416Z" fill="#76A6EE"/>
</svg>
